<?xml version="1.0" encoding="UTF-8" standalone="no"?>
<!DOCTYPE svg PUBLIC "-//W3C//DTD SVG 1.1//EN" "http://www.w3.org/Graphics/SVG/1.1/DTD/svg11.dtd">
<!-- Created with Vectornator (http://vectornator.io/) -->
<svg height="100%" stroke-miterlimit="10" style="fill-rule:nonzero;clip-rule:evenodd;stroke-linecap:round;stroke-linejoin:round;" version="1.1" viewBox="0 0 142 142" width="100%" xml:space="preserve" xmlns="http://www.w3.org/2000/svg" xmlns:vectornator="http://vectornator.io" xmlns:xlink="http://www.w3.org/1999/xlink">
<defs/>
<clipPath id="ArtboardFrame">
<rect height="142" width="142" x="0" y="0"/>
</clipPath>
<g clip-path="url(#ArtboardFrame)" id="g816" vectornator:layerName="g816">
<path d="M142 70.9993C142 78.7441 137.423 85.6441 135.238 92.6241C132.97 99.8663 132.68 108.22 128.448 114.249C124.172 120.338 116.567 123.185 110.691 127.616C104.874 132.003 99.9342 138.645 92.948 140.997C86.2052 143.266 78.4713 140.976 71.0001 140.976C63.5289 140.976 55.7951 143.266 49.0542 140.997C42.0661 138.645 37.1259 132.003 31.3085 127.616C25.4333 123.185 17.8287 120.338 13.5531 114.249C9.32011 108.222 9.0303 99.8684 6.7621 92.6241C4.57311 85.636 6.94e-07 78.7361 6.94e-07 70.9993C6.94e-07 63.2624 4.57698 56.3545 6.7621 49.3745C9.0303 42.1322 9.32011 33.7786 13.5531 27.7497C17.8287 21.6627 25.4333 18.8135 31.3085 14.3845C37.1259 9.9974 42.0661 3.35379 49.0542 1.0031C55.7951-1.2655 63.5289 1.02312 71.0001 1.02312C78.4713 1.02312 86.2052-1.2655 92.9461 1.0031C99.9342 3.35379 104.874 9.9974 110.691 14.3845C116.567 18.8135 124.172 21.6627 128.448 27.7497C132.68 33.7786 132.97 42.1322 135.238 49.3745C137.423 56.3545 142 63.2563 142 70.9993Z" fill="#326ce5" fill-rule="nonzero" opacity="1" stroke="none" vectornator:layerName="path"/>
<path d="M13.6169 62.8136C21.8145 62.8136 21.8145 66.8183 30.0102 66.8183C38.2058 66.8183 38.2078 62.8136 46.4053 62.8136C54.6029 62.8136 54.601 66.8183 62.7986 66.8183C70.9962 66.8183 70.9943 62.8136 79.1919 62.8136C87.3895 62.8136 87.3894 66.8183 95.5851 66.8183C103.781 66.8183 103.783 62.8136 111.98 62.8136C120.178 62.8136 120.178 66.8183 128.375 66.8183" fill="none" opacity="1" stroke="#ffffff" stroke-linecap="butt" stroke-linejoin="miter" stroke-width="1.02007" vectornator:layerName="path"/>
<path d="M13.6169 70.8229C21.8145 70.8229 21.8145 74.8275 30.0102 74.8275C38.2058 74.8275 38.2078 70.8229 46.4053 70.8229C54.6029 70.8229 54.601 74.8275 62.7986 74.8275C70.9962 74.8275 70.9943 70.8229 79.1919 70.8229C87.3895 70.8229 87.3894 74.8275 95.5851 74.8275C103.781 74.8275 103.783 70.8229 111.98 70.8229C120.178 70.8229 120.178 74.8275 128.375 74.8275" fill="none" opacity="1" stroke="#ffffff" stroke-linecap="butt" stroke-linejoin="miter" stroke-width="1.02007" vectornator:layerName="path"/>
<path d="M13.6169 80.4338C21.8145 80.4338 21.8145 84.4384 30.0102 84.4384C38.2058 84.4384 38.2078 80.4338 46.4053 80.4338C54.6029 80.4338 54.601 84.4384 62.7986 84.4384C70.9962 84.4384 70.9943 80.4338 79.1919 80.4338C87.3895 80.4338 87.3894 84.4384 95.5851 84.4384C103.781 84.4384 103.783 80.4338 111.98 80.4338C120.178 80.4338 120.178 84.4384 128.375 84.4384" fill="none" opacity="1" stroke="#ffffff" stroke-linecap="butt" stroke-linejoin="miter" stroke-width="1.02007" vectornator:layerName="path"/>
<path d="M70.9963 8.49548C37.6881 8.49548 10.686 36.4795 10.686 70.9991C10.686 105.518 37.6881 133.503 70.9963 133.503C104.305 133.503 131.307 105.527 131.307 70.9991C131.307 36.4716 104.305 8.49548 70.9963 8.49548ZM70.9809 128.064C40.5629 128.064 15.9392 102.533 15.9334 71.009C15.9334 39.4509 40.6209 13.8837 71.06 13.9437C101.499 14.0038 126.087 39.5331 126.06 71.0531C126.032 102.573 101.399 128.075 70.9809 128.064Z" fill="#ffffff" fill-rule="nonzero" opacity="1" stroke="none" vectornator:layerName="path"/>
<path d="M43.175 99.3195C42.9818 98.6288 42.0641 97.9419 41.3512 98.0341C40.3389 98.1682 39.3303 98.3424 38.1131 98.5306C38.5613 97.2992 38.94 96.248 39.3264 95.1968C39.6606 94.2837 38.94 93.8412 38.488 93.3526C38.0358 92.8641 37.6823 93.4808 37.375 93.7331C35.7386 95.0766 34.1525 96.4863 32.5006 97.8078C31.7162 98.4345 32.3074 98.799 32.6243 99.2495C32.941 99.6999 33.2637 100.207 33.911 99.6159C34.6567 98.9371 35.445 98.3064 36.2294 97.6476C36.2584 97.7237 36.2854 97.7598 36.2777 97.7838C36.1231 98.2484 35.9551 98.7088 35.8043 99.1754C35.4894 100.16 36.098 100.879 37.0969 100.717C37.5122 100.649 37.9354 100.517 38.4299 100.737C37.6263 101.42 36.9288 102.061 36.183 102.631C35.5705 103.1 35.8643 103.482 36.2332 103.833C36.6023 104.183 36.7568 105.096 37.547 104.433C39.3232 102.949 41.0935 101.46 42.8581 99.9663C43.0398 99.8121 43.2735 99.668 43.175 99.3195Z" fill="#ffffff" fill-rule="nonzero" opacity="1" stroke="none" vectornator:layerName="path"/>
<path d="M75.4689 31.9644C76.7324 32.5049 77.2329 32.2567 77.4936 30.9032C77.5516 30.6088 77.6038 30.3165 77.6733 30.0261C77.7294 29.7899 77.6733 29.3914 78.023 29.4414C78.3728 29.4916 78.821 29.4175 78.9485 29.958C79.076 30.4987 79.2345 30.9773 79.3774 31.4858C79.7792 32.8874 80.0555 33.1057 81.4331 33.1798C81.9509 33.2078 82.0668 33.0256 81.9296 32.5471C81.7133 31.7841 81.5258 31.0113 81.2959 30.2524C81.1897 29.906 81.1027 29.7018 81.5606 29.5035C82.6773 29.015 82.9787 27.9658 83.0579 26.8865C83.0579 25.5531 82.2851 24.5779 80.8399 24.1774C79.6653 23.853 78.4597 23.6508 77.2696 23.3765C76.8251 23.2764 76.603 23.4627 76.5199 23.9032C76.0639 26.3059 75.6003 28.7247 75.1501 31.1394C75.0902 31.4657 75.0458 31.7841 75.4689 31.9644ZM78.8577 25.7573C79.8333 25.6552 80.7743 26.2398 80.7646 26.8385C80.755 27.4372 80.4169 27.7275 79.7619 27.7456C79.358 27.3932 78.4211 27.9658 78.2839 27.0707C78.2259 26.6923 78.0907 25.8474 78.8577 25.7653L78.8577 25.7573Z" fill="#ffffff" fill-rule="nonzero" opacity="1" stroke="none" vectornator:layerName="path"/>
<path d="M62.7465 110.296C62.1978 110.109 61.6376 109.876 61.4443 110.82C61.2337 111.86 60.913 112.873 60.5807 114.124C60.0726 112.558 59.6012 111.218 59.209 109.852C58.952 108.958 58.214 108.967 57.5919 108.851C56.906 108.734 57.0296 109.451 56.9215 109.852C56.3418 111.926 55.8434 114.029 55.2213 116.091C54.9159 117.108 55.6405 117.015 56.1235 117.19C56.6375 117.372 57.1803 117.59 57.3755 116.709C57.6092 115.654 57.9203 114.617 58.2352 113.437C58.3647 113.746 58.4536 113.922 58.5134 114.107C58.8998 115.307 59.3037 116.496 59.6726 117.698C59.9374 118.588 60.7102 118.534 61.3265 118.622C61.9428 118.71 61.8153 118.021 61.9176 117.659C62.4973 115.58 62.9861 113.476 63.6179 111.417C63.9057 110.421 63.2392 110.464 62.7465 110.296Z" fill="#ffffff" fill-rule="nonzero" opacity="1" stroke="none" vectornator:layerName="path"/>
<path d="M109.281 97.6316C108.648 97.5375 108.024 97.3432 107.388 97.2812C106.864 97.2312 106.733 97.0429 106.716 96.4803C106.673 95.0787 105.45 93.9293 104.119 93.9133C103.205 93.8873 102.506 94.3618 101.945 95.0266C101.247 95.8536 100.649 96.7685 99.9496 97.5935C99.4743 98.1562 99.5342 98.5046 100.1 98.9471C101.793 100.273 103.472 101.62 105.112 103.012C105.692 103.492 105.983 103.442 106.41 102.839C107.183 101.748 107.214 101.774 106.173 100.937C105.944 100.753 105.705 100.581 105.496 100.375C105.336 100.217 104.938 100.152 105.162 99.7921C105.344 99.5017 105.5 99.1213 105.966 99.2194C106.431 99.3175 106.932 99.3315 107.382 99.5017C108.42 99.9022 109.065 99.4837 109.629 98.5927C110.002 98.014 110.021 97.7397 109.281 97.6316ZM103.485 98.7189C103.34 98.7308 102.301 97.8058 102.311 97.6716C102.336 97.3193 103.524 96.1399 103.856 96.1399C104.303 96.2319 104.629 96.4622 104.666 96.9708C104.687 97.2812 103.706 98.6988 103.485 98.7189Z" fill="#ffffff" fill-rule="nonzero" opacity="1" stroke="none" vectornator:layerName="path"/>
<path d="M61.2511 32.1626C61.3188 32.563 61.4443 32.8834 61.9254 32.8053C63.6642 32.4929 65.4147 32.2227 67.1419 31.8502C68.0538 31.6499 67.4259 30.9371 67.4355 30.4486C67.4452 29.926 67.1709 29.7678 66.6762 29.868C65.7315 30.0582 64.7732 30.1883 63.8284 30.3826C63.3377 30.4826 63.2082 30.2504 63.1618 29.8159C63.1214 29.4294 63.0673 29.1291 63.6063 29.067C64.4042 28.9789 65.1847 28.7446 65.9827 28.6565C66.8463 28.5604 66.6878 27.9978 66.5951 27.4292C66.5024 26.8605 66.3864 26.3939 65.6291 26.6102C64.92 26.8104 64.1685 26.8424 63.4537 27.0287C62.9513 27.1608 62.7059 27.1288 62.6016 26.5201C62.4876 25.8633 62.8393 25.8093 63.2875 25.7392C64.0816 25.6171 64.8717 25.4588 65.6658 25.3388C66.174 25.2587 66.5642 25.1124 66.3594 24.4497C66.1952 23.9171 66.4289 23.0762 65.3683 23.3044C63.8593 23.6308 62.3388 23.9051 60.8125 24.1053C60.0823 24.2014 59.9818 24.5398 60.09 25.1686C60.4821 27.5052 60.8666 29.8399 61.2511 32.1626Z" fill="#ffffff" fill-rule="nonzero" opacity="1" stroke="none" vectornator:layerName="path"/>
<path d="M87.0281 111.241C86.4646 111.478 85.8894 111.683 85.3048 111.856C84.8199 112.016 84.4702 112.22 84.76 112.857C84.9899 113.349 84.928 114.169 85.8458 113.788C86.0139 113.718 86.1936 113.554 86.3577 113.766C86.522 113.978 86.4137 114.23 86.3327 114.43C86.097 115.005 85.6023 115.251 85.0479 115.352C84.4933 115.452 84.0355 115.178 83.7592 114.677C83.3719 113.984 83.1099 113.225 82.9863 112.435C82.8067 111.267 83.8789 110.246 84.901 110.757C85.7433 111.177 86.3771 110.841 87.092 110.624C87.5807 110.477 87.5827 110.174 87.3006 109.805C86.6475 108.952 85.755 108.682 84.7425 108.638C83.6772 108.635 82.6469 109.033 81.8446 109.76C80.8785 110.656 80.4921 111.794 80.8785 113.093C81.3674 114.794 81.6513 116.698 83.6915 117.258C85.2565 117.685 86.636 117.181 87.7488 116.033C88.9525 114.783 88.6608 113.327 88.1353 111.843C87.9053 111.211 87.6812 110.943 87.0281 111.241Z" fill="#ffffff" fill-rule="nonzero" opacity="1" stroke="none" vectornator:layerName="path"/>
<path d="M99.0107 107.459C98.3035 108.032 97.5346 108.522 96.8255 109.094C96.4391 109.407 96.2459 109.309 95.9967 108.933C95.7474 108.556 95.6702 108.332 96.0855 108.049C96.7289 107.61 97.3453 107.13 97.9712 106.666C98.176 106.514 98.4234 106.389 98.4002 106.021C98.2357 105.566 97.9561 105.165 97.5906 104.859C97.2312 104.598 96.9531 104.997 96.6729 105.198C96.0933 105.615 95.4866 105.999 94.9457 106.468C94.4955 106.856 94.366 106.502 94.1439 106.225C93.8772 105.903 93.8734 105.703 94.2463 105.451C94.9708 104.96 95.6412 104.383 96.3715 103.907C96.9704 103.518 96.8429 103.142 96.4913 102.693C96.1802 102.293 95.9908 101.692 95.3031 102.233C94.0434 103.206 92.7489 104.133 91.4602 105.07C91.0545 105.365 91.0371 105.656 91.3211 106.072C92.6542 107.987 93.97 109.915 95.2896 111.843C95.5292 112.192 95.7629 112.33 96.159 112.032C97.4805 111.031 98.813 110.046 100.156 109.079C100.789 108.624 100.406 108.246 100.135 107.836C99.8647 107.425 99.6076 106.972 99.0107 107.459Z" fill="#ffffff" fill-rule="nonzero" opacity="1" stroke="none" vectornator:layerName="path"/>
<path d="M49.1064 104.209C48.8358 104.008 48.5499 104.103 48.3065 104.299C46.3513 105.874 44.398 107.452 42.4466 109.032C42.1896 109.232 41.9983 109.527 42.3693 109.741C43.0533 110.141 43.6793 111.143 44.5893 110.085C44.6335 110.016 44.7024 109.967 44.7812 109.95C44.86 109.932 44.9423 109.947 45.0104 109.992C45.7369 110.484 46.4691 110.966 47.1936 111.459C47.3868 111.595 47.323 111.808 47.2999 112.004C47.1974 112.863 47.7713 113.83 48.5963 113.876C49.4579 113.922 49.0522 112.979 49.3227 112.537C49.3546 112.478 49.3768 112.414 49.3883 112.349C49.8907 110.216 50.3931 108.082 50.934 105.771C50.7176 104.906 49.7612 104.726 49.1064 104.209ZM47.8698 109.559C46.3609 108.64 46.3609 108.64 47.5858 107.627C47.8331 107.427 48.0881 107.226 48.4514 106.938C48.3591 107.833 48.1639 108.713 47.8698 109.559Z" fill="#ffffff" fill-rule="nonzero" opacity="1" stroke="none" vectornator:layerName="path"/>
<path d="M46.6121 36.7178C47.578 38.1074 49.0619 38.5198 50.6346 37.9192C52.2691 37.3065 53.5326 35.6526 53.4669 34.1408C53.4326 33.7783 53.3521 33.4222 53.2273 33.0816C53.2099 32.9825 53.1588 32.8931 53.0833 32.8296C53.0078 32.7661 52.913 32.7326 52.8158 32.7352C52.2556 32.7352 51.2258 33.7744 51.2181 34.3971C51.2084 35.2361 50.6906 35.6566 50.0433 35.9249C49.4309 36.1772 48.8842 35.9249 48.5228 35.3983C48.0918 34.7795 47.7081 34.1268 47.3752 33.446C47.1048 32.8714 47.155 32.2447 47.6592 31.7981C48.1635 31.3517 48.7876 31.0493 49.5043 31.4558C50.0066 31.7421 51.361 31.2555 51.6489 30.749C51.8421 30.4246 51.5948 30.2424 51.4382 30.0622C51.178 29.7571 50.8561 29.515 50.4956 29.353C50.135 29.1911 49.7445 29.1133 49.3517 29.1251C46.7666 29.1351 44.7515 31.1975 45.024 33.4521C45.1785 34.7215 45.9378 35.7226 46.6121 36.7178Z" fill="#ffffff" fill-rule="nonzero" opacity="1" stroke="none" vectornator:layerName="path"/>
<path d="M74.0604 112.761C73.4055 110.995 72.9553 110.759 71.203 111.16C71.06 111.175 70.9245 111.233 70.8125 111.327C70.7005 111.42 70.6167 111.544 70.5712 111.686C69.8371 114.12 69.1054 116.559 68.3765 119.002C68.3127 119.216 68.22 119.469 68.4673 119.637C68.9947 119.997 70.38 119.492 70.6176 118.857C70.7161 118.594 70.7181 118.271 71.1412 118.279C71.914 118.295 72.6868 118.279 73.4596 118.241C73.7339 118.23 73.904 118.337 73.9523 118.594C74.101 119.395 74.5647 119.631 75.2042 119.458C76.5122 119.425 76.518 119.421 76.0891 118.258C75.4142 116.421 74.7379 114.588 74.0604 112.761ZM72.0202 116.379C71.4406 116.379 71.3556 116.211 71.5295 115.701C71.7402 115.076 71.9159 114.439 72.1612 113.626C72.4183 114.307 72.6076 114.797 72.7872 115.29C73.1891 116.405 73.1795 116.367 72.0202 116.379Z" fill="#ffffff" fill-rule="nonzero" opacity="1" stroke="none" vectornator:layerName="path"/>
<path d="M91.0391 37.785C91.4912 38.0413 91.922 38.7242 92.4437 37.8211C93.1333 36.6197 93.8811 35.4604 94.5998 34.281C95.4653 32.8634 95.4885 32.8213 96.8796 33.7284C97.6196 34.2129 97.8147 33.6903 98.1257 33.2239C98.458 32.7233 98.5894 32.3409 97.9325 31.9404C96.3869 30.9859 94.8703 29.9901 93.3827 28.953C92.7508 28.5164 92.4379 28.6325 92.0302 29.2813C91.5781 29.9961 91.6709 30.3765 92.3702 30.761C92.776 30.9833 93.2299 31.1875 93.5101 31.604C93.3671 31.8422 93.2512 32.0425 93.1237 32.2388C92.2485 33.6724 91.3984 35.122 90.4923 36.5336C90.0055 37.3105 90.5677 37.5168 91.0391 37.785Z" fill="#ffffff" fill-rule="nonzero" opacity="1" stroke="none" vectornator:layerName="path"/>
<path d="M96.2332 70.4323C95.381 73.6777 93.9998 76.8431 92.1288 79.8409C90.9339 81.7552 89.5883 83.5176 88.1113 85.1133C89.7973 78.2338 88.6562 69.8063 84.5201 61.9032C84.2293 61.3474 83.5575 61.1633 83.0258 61.4958L70.1453 69.5527C69.6522 69.8614 69.5021 70.5115 69.8102 71.0054L71.6988 74.0307C72.0069 74.5246 72.6566 74.6746 73.1499 74.3662L81.4979 69.144C81.7777 69.9466 82.0285 70.7546 82.2421 71.5682C83.0455 74.626 83.3447 77.61 83.1313 80.4374C82.7347 85.701 80.5941 89.8022 77.1037 91.9855C75.3607 93.0759 73.3355 93.6533 71.1344 93.7161C71.0866 93.7152 71.038 93.7168 70.9902 93.7161C70.9492 93.7161 70.9076 93.7152 70.8666 93.7161C68.6653 93.6536 66.6398 93.0759 64.8962 91.9852C61.406 89.8022 59.2652 85.701 58.8686 80.4374C58.6555 77.61 58.9547 74.626 59.7578 71.5682C60.6103 68.3228 61.9909 65.1575 63.8625 62.1597C65.7336 59.1619 67.9702 56.5318 70.5107 54.3422C72.9039 52.2792 75.452 50.7019 78.0839 49.6542C82.9839 47.7036 87.6044 47.832 91.0948 50.0153C94.585 52.1984 96.7258 56.2996 97.1224 61.5631C97.3358 64.3906 97.0366 67.3746 96.2332 70.4323M49.8714 79.8409C48.0001 76.8431 46.6192 73.6777 45.7667 70.4323C44.9636 67.3746 44.6644 64.3906 44.8775 61.5631C45.2744 56.2996 47.4149 52.1984 50.9054 50.0153C54.3955 47.832 59.0163 47.7036 63.916 49.6542C64.6537 49.9478 65.3836 50.2892 66.1065 50.6663C63.4947 53.0353 61.0952 55.8822 59.0541 59.1522C53.6489 67.8111 52.0049 77.4291 53.8895 85.1141C52.4124 83.5185 51.0666 81.7555 49.8714 79.8409M94.0992 45.2019C87.4772 41.0596 78.7604 42.0441 70.9978 46.9373C63.2366 42.0457 54.5219 41.0604 47.9007 45.2022C37.4397 51.7456 36.1693 68.6007 45.063 82.8486C51.6209 93.3541 61.8732 99.508 71.0005 99.3934C80.1273 99.5075 90.3792 93.3538 96.9369 82.8486C105.831 68.6007 104.56 51.7456 94.0992 45.2019" fill="#ffffff" fill-rule="evenodd" opacity="0" stroke="#326ce5" stroke-linecap="butt" stroke-linejoin="miter" stroke-width="1.02007" vectornator:layerName="path"/>
<g opacity="1" vectornator:layerName="Courbe 10">
<path d="M99.7648 45.3897C102.084 45.3897 104.045 47.2309 104.691 49.7629C104.837 50.3368 104.691 49.7629 104.691 49.7629L104.691 55.2225L104.691 49.7629L95.73 53.941L95.73 53.941L82.8324 59.9544L82.8324 59.9544L72.3357 59.9544" fill="#ffffff" fill-opacity="0" fill-rule="nonzero" stroke="none"/>
<path d="M99.8438 44.3438C99.2737 44.3085 98.754 44.7424 98.7188 45.3125C98.6835 45.8826 99.1174 46.4022 99.6875 46.4375C101.159 46.522 102.345 47.2553 103.094 48.5312C103.227 48.7589 103.281 49.0138 103.375 49.25C103.295 49.2894 103.204 49.3071 103.125 49.3438C102.751 49.5171 102.374 49.6704 102 49.8438C100.879 50.3638 99.7774 50.8862 98.6562 51.4062C94.8456 53.1738 91.0285 54.9493 87.2188 56.7188C86.1432 57.2183 85.0724 57.7126 84 58.2188C83.5239 58.4434 83.0716 58.7723 82.5625 58.9062C82.2266 58.9946 81.8785 58.8802 81.5312 58.875C80.6566 58.8618 79.781 58.8754 78.9062 58.875C76.7194 58.874 74.5306 58.876 72.3438 58.875C71.7405 58.875 71.25 59.3655 71.25 59.9688C71.25 60.572 71.7405 61.0313 72.3438 61.0312C74.9679 61.03 77.5946 61.0325 80.2188 61.0312C80.6561 61.031 81.0939 61.0366 81.5312 61.0312C82.0589 61.0248 82.5821 61.1293 83.0938 61C83.7332 60.8384 84.3073 60.4637 84.9062 60.1875C85.4447 59.9392 85.9629 59.6887 86.5 59.4375C89.1854 58.1813 91.878 56.9143 94.5625 55.6562C97.3376 54.3557 100.131 53.0505 102.906 51.75C103.146 51.6379 103.398 51.5235 103.656 51.4062C103.656 51.7682 103.657 52.1381 103.656 52.5C103.656 52.9484 103.656 53.3955 103.656 53.8438C103.656 53.9277 103.656 54.0098 103.656 54.0938C103.656 54.3195 103.656 54.5555 103.656 54.7812C103.656 54.7826 103.656 54.875 103.656 54.875C104.35 54.8786 105.025 54.8786 105.719 54.875C105.719 54.875 105.719 54.7238 105.719 54.7188C105.719 54.4948 105.719 54.2864 105.719 54.0625C105.718 53.5436 105.719 53.0189 105.719 52.5C105.718 51.6251 105.712 50.75 105.719 49.875C105.687 49.928 105.649 49.9654 105.625 50.0312C105.605 49.9475 105.559 49.8901 105.531 49.8125C105.605 49.7937 105.676 49.7688 105.75 49.75C105.826 49.7306 105.735 49.6233 105.688 49.5312C105.675 49.5065 105.693 49.4889 105.688 49.4688C105.621 49.244 105.548 49.0332 105.469 48.8125C105.301 48.3433 105.127 47.9291 104.875 47.5C103.774 45.6287 102 44.4845 99.8438 44.3438Z" fill="#ffffff" stroke="none"/>
</g>
<path d="M99.6304 45.3897C96.8687 45.3897 94.6298 47.7229 94.6298 50.601C94.6298 51.1874 94.3861 49.8901 94.3861 49.8901L79.1411 50.601C79.1411 50.601 79.22 51.9189 79.1411 51.5241C78.5996 48.8144 76.295 46.7786 73.5341 46.7786C70.371 46.7786 67.8067 49.4509 67.8067 52.7473C67.8067 53.3926 67.8067 52.1781 67.8067 52.1781L38.6466 64.6863" fill="#ffffff" fill-opacity="0" fill-rule="nonzero" opacity="1" stroke="#ffffff" stroke-linecap="butt" stroke-linejoin="round" stroke-width="2.05717" vectornator:layerName="Courbe 11"/>
<g opacity="0" vectornator:layerName="Ligne 1">
<path d="M33.3457 64.6863L104.691 64.816" fill="#ffffff" fill-opacity="0" fill-rule="nonzero" stroke="none"/>
<path d="M33.3438 63.6562C32.7726 63.6552 32.3135 64.1164 32.3125 64.6875C32.3115 65.2586 32.7726 65.7177 33.3438 65.7188C57.1255 65.766 80.9058 65.8549 104.688 65.9062C105.291 65.9073 105.78 65.4158 105.781 64.8125C105.782 64.2092 105.291 63.7198 104.688 63.7188C80.9057 63.6837 57.1255 63.6955 33.3438 63.6562Z" fill="#ffffff" stroke="none"/>
</g>
<g opacity="1" vectornator:layerName="Ligne 2">
<path d="M104.691 55.2225L84.6607 63.3458" fill="#ffffff" fill-opacity="0" fill-rule="nonzero" stroke="none"/>
<path d="M104.312 54.25C97.6342 56.9541 90.9299 59.6435 84.25 62.3438C83.691 62.5705 83.4295 63.191 83.6562 63.75C83.883 64.309 84.5035 64.5705 85.0625 64.3438C91.7363 61.6284 98.4184 58.899 105.094 56.1875C105.623 55.9729 105.871 55.373 105.656 54.8438C105.442 54.3145 104.842 54.0353 104.312 54.25Z" fill="#ffffff" stroke="none"/>
</g>
<g opacity="1" vectornator:layerName="Ligne 3">
<path d="M67.5483 52.1781L67.129 52.3605" fill="#ffffff" fill-opacity="0" fill-rule="nonzero" stroke="none"/>
<path d="M67.125 51.2188C66.9775 51.2617 66.835 51.3008 66.6875 51.3438C66.1343 51.5843 65.8845 52.228 66.125 52.7812C66.3655 53.3345 67.0093 53.6155 67.5625 53.375C67.6945 53.2965 67.8367 53.2035 67.9688 53.125C68.4925 52.8973 68.7277 52.305 68.5 51.7812C68.2723 51.2575 67.6488 50.991 67.125 51.2188Z" fill="#ffffff" stroke="none"/>
</g>
<g opacity="1" vectornator:layerName="Ligne 4">
<path d="M87.6163 58.8436L87.6492 58.8431" fill="#ffffff" fill-opacity="0" fill-rule="nonzero" stroke="none"/>
<path d="M87.625 57.75C87.6144 57.7696 87.6044 57.7929 87.5938 57.8125C87.0227 57.8223 86.5839 58.3039 86.5938 58.875C86.6036 59.4461 87.0539 59.8848 87.625 59.875C87.6363 59.8942 87.645 59.9183 87.6562 59.9375C88.2594 59.9271 88.7604 59.4157 88.75 58.8125C88.7396 58.2093 88.2282 57.7396 87.625 57.75Z" fill="#ffffff" stroke="none"/>
</g>
<g opacity="1" vectornator:layerName="Ligne 5">
<path d="M80.9303 61.0584L80.9631 60.991" fill="#ffffff" fill-opacity="0" fill-rule="nonzero" stroke="none"/>
<path d="M80.5938 59.9688C80.3295 60.0598 80.1009 60.2289 79.9688 60.5C79.9752 60.531 79.9935 60.5628 80 60.5938C79.7498 61.1072 79.9553 61.7498 80.4688 62C80.9822 62.2502 81.6248 62.0134 81.875 61.5C81.9034 61.486 81.9091 61.4827 81.9375 61.4688C82.2018 60.9265 81.9798 60.2643 81.4375 60C81.1664 59.8678 80.858 59.8777 80.5938 59.9688Z" fill="#ffffff" stroke="none"/>
</g>
<g opacity="1" vectornator:layerName="Ligne 6">
<path d="M74.5703 61.0584L74.5697 61.0584" fill="#ffffff" fill-opacity="0" fill-rule="nonzero" stroke="none"/>
<path d="M74.5625 59.9688C73.9592 59.9688 73.4687 60.4592 73.4688 61.0625C73.4688 61.6658 73.9592 62.1562 74.5625 62.1562C74.5627 62.1369 74.5623 62.1131 74.5625 62.0938C75.1336 62.0938 75.5937 61.6336 75.5938 61.0625C75.5938 60.4914 75.1336 60.0313 74.5625 60.0312C74.5623 60.0119 74.5627 59.9881 74.5625 59.9688Z" fill="#ffffff" stroke="none"/>
</g>
<g opacity="1" vectornator:layerName="Ligne 7">
<path d="M73.57 53.3156L73.6685 53.3818" fill="#ffffff" fill-opacity="0" fill-rule="nonzero" stroke="none"/>
<path d="M73.375 52.3125C73.1153 52.3634 72.8781 52.513 72.7188 52.75C72.4001 53.224 72.526 53.8688 73 54.1875C73.022 54.2257 73.0405 54.2431 73.0625 54.2812C73.5631 54.6179 74.2259 54.5006 74.5625 54C74.8991 53.4994 74.7819 52.8054 74.2812 52.4688C74.2376 52.4627 74.1999 52.4747 74.1562 52.4688C73.9193 52.3094 73.6347 52.2616 73.375 52.3125Z" fill="#ffffff" stroke="none"/>
</g>
<g opacity="1" vectornator:layerName="Polygone 3">
<path d="M59.9625 55.7228L61.0467 49.7629L65.5633 53.4148L59.9625 55.7228Z" fill="#ffffff" fill-rule="nonzero" stroke="none"/>
<path d="M60.9688 49.3438C60.2033 49.5708 60.1804 50.4696 60.0625 51.125C59.9731 51.6218 59.8708 52.1282 59.7812 52.625C59.6917 53.1218 59.7896 52.6133 59.25 55.5938C59.236 55.6707 59.3653 55.6764 59.375 55.75C59.3692 55.8609 59.2049 55.9217 59.25 56.0312C59.3217 56.2053 59.533 56.1374 59.6875 56.2188C59.7694 56.2743 59.7401 56.4186 59.8438 56.4375C59.9138 56.4502 59.9326 56.3508 60 56.3438C60.0994 56.3442 60.1524 56.4777 60.25 56.4375C61.6496 55.8591 61.0336 55.982 61.6562 55.8438C62.1491 55.7344 62.596 55.4742 63.0625 55.2812C63.529 55.0883 64.0023 54.8805 64.4688 54.6875C65.0356 54.4529 65.779 54.2882 65.9688 53.625C66.1979 52.8244 65.4374 52.332 64.9062 51.9062C64.5286 51.6035 64.1589 51.3027 63.7812 51C63.4036 50.6973 63.0339 50.3965 62.6562 50.0938C62.1805 49.7124 61.6391 49.1449 60.9688 49.3438ZM61.5312 51.125C61.5781 51.1632 61.6407 51.2118 61.6875 51.25C62.0714 51.5631 62.4599 51.8744 62.8438 52.1875C63.2188 52.4934 63.5937 52.7878 63.9688 53.0938C64.0114 53.1285 64.0511 53.1527 64.0938 53.1875C63.5444 53.4207 62.9572 53.6432 62.4688 53.8438C62.2148 53.948 61.3151 54.3136 60.9375 54.4688C60.9458 54.4483 60.9578 54.4017 60.9688 54.375C61.1608 53.9082 61.1276 53.3715 61.2188 52.875C61.3099 52.3785 61.4087 51.8715 61.5 51.375C61.5152 51.2926 61.5188 51.2104 61.5312 51.125Z" fill="#ffffff" stroke="none"/>
</g>
<g opacity="1" vectornator:layerName="Polygone 4">
<path d="M54.3617 57.8119L55.4459 51.8519L59.9625 55.5038L54.3617 57.8119Z" fill="#ffffff" fill-rule="nonzero" stroke="none"/>
<path d="M55.375 51.4375C54.6096 51.6646 54.5554 52.5634 54.4375 53.2188C54.3481 53.7156 54.2771 54.1907 54.1875 54.6875C54.0979 55.1843 54.1959 54.7071 53.6562 57.6875C53.6433 57.7589 53.7425 57.7751 53.75 57.8438C53.7495 57.9431 53.616 57.9961 53.6562 58.0938C53.7168 58.2406 53.9085 58.1678 54.0312 58.25C54.1266 58.3319 54.0862 58.5071 54.2188 58.5312C54.2938 58.5449 54.3031 58.4152 54.375 58.4062C54.4876 58.4129 54.5449 58.5771 54.6562 58.5312C56.0559 57.9528 55.4399 58.0757 56.0625 57.9375C56.5553 57.8281 57.0023 57.5679 57.4688 57.375C57.9352 57.1821 58.3773 56.9743 58.8438 56.7812C59.4106 56.5467 60.1852 56.3507 60.375 55.6875C60.6041 54.8869 59.8436 54.4257 59.3125 54C58.9348 53.6973 58.5652 53.3965 58.1875 53.0938C57.8098 52.791 57.4089 52.4902 57.0312 52.1875C56.5555 51.8062 56.0453 51.2386 55.375 51.4375ZM55.9688 53.2188C56.0083 53.251 56.0542 53.2802 56.0938 53.3125C56.4776 53.6256 56.8349 53.9369 57.2188 54.25C57.5938 54.5559 57.9687 54.8816 58.3438 55.1875C58.3844 55.2206 58.4281 55.2481 58.4688 55.2812C57.9214 55.5133 57.3613 55.7378 56.875 55.9375C56.6166 56.0436 55.7111 56.3987 55.3125 56.5625C55.3223 56.5381 55.3296 56.4719 55.3438 56.4375C55.5358 55.9707 55.5339 55.4653 55.625 54.9688C55.7161 54.4722 55.8149 53.9652 55.9062 53.4688C55.9218 53.3844 55.956 53.3062 55.9688 53.2188Z" fill="#ffffff" stroke="none"/>
</g>
<g opacity="1" vectornator:layerName="Polygone 5">
<path d="M47.7603 60.3658L48.8445 54.4059L53.3611 58.0578L47.7603 60.3658Z" fill="#ffffff" fill-rule="nonzero" stroke="none"/>
<path d="M48.75 54C47.9846 54.2271 47.9617 55.0946 47.8438 55.75C47.7544 56.2468 47.6833 56.7532 47.5938 57.25C47.5042 57.7468 47.5709 57.2696 47.0312 60.25C47.0172 60.327 47.1465 60.3326 47.1562 60.4062C47.1544 60.5089 46.9897 60.5553 47.0312 60.6562C47.0962 60.8138 47.3024 60.7612 47.4375 60.8438C47.5277 60.9141 47.5046 61.0718 47.625 61.0938C47.702 61.1078 47.7076 60.9785 47.7812 60.9688C47.8911 60.974 47.9541 61.1384 48.0625 61.0938C49.4621 60.5153 48.8462 60.6382 49.4688 60.5C49.9616 60.3906 50.3773 60.1304 50.8438 59.9375C51.3102 59.7446 51.7836 59.5368 52.25 59.3438C52.8168 59.1092 53.5915 58.9132 53.7812 58.25C54.0104 57.4494 53.2499 56.9882 52.7188 56.5625C52.3411 56.2598 51.9402 55.959 51.5625 55.6562C51.1848 55.3535 50.8152 55.0527 50.4375 54.75C49.9618 54.3687 49.4203 53.8011 48.75 54ZM49.3438 55.7812C49.3883 55.8176 49.4242 55.8386 49.4688 55.875C49.8526 56.1881 50.2411 56.4994 50.625 56.8125C51.0001 57.1184 51.3749 57.4441 51.75 57.75C51.7906 57.7831 51.8344 57.8106 51.875 57.8438C51.33 58.0744 50.7651 58.3013 50.2812 58.5C50.0228 58.6061 49.1173 58.9612 48.7188 59.125C48.7286 59.1006 48.7359 59.0343 48.75 59C48.9421 58.5332 48.9401 58.0278 49.0312 57.5312C49.1224 57.0347 49.2212 56.5277 49.3125 56.0312C49.3271 55.9518 49.3317 55.8636 49.3438 55.7812Z" fill="#ffffff" stroke="none"/>
</g>
<g opacity="1" vectornator:layerName="Polygone 6">
<path d="M41.3366 63.3458L42.4208 57.3859L46.9374 61.0377L41.3366 63.3458Z" fill="#ffffff" fill-rule="nonzero" stroke="none"/>
<path d="M42.3438 56.9688C41.5783 57.1958 41.5554 58.0946 41.4375 58.75C41.3481 59.2468 41.2458 59.722 41.1562 60.2188C41.0667 60.7155 41.1646 60.2383 40.625 63.2188C40.6123 63.2888 40.7117 63.3076 40.7188 63.375C40.7183 63.4744 40.5848 63.5274 40.625 63.625C40.6917 63.7868 40.8913 63.7301 41.0312 63.8125C41.1215 63.8829 41.0983 64.0406 41.2188 64.0625C41.2957 64.0765 41.3014 63.9472 41.375 63.9375C41.4776 63.9394 41.524 64.1041 41.625 64.0625C43.0246 63.4841 42.4086 63.607 43.0312 63.4688C43.5241 63.3594 43.971 63.0992 44.4375 62.9062C44.904 62.7133 45.3773 62.5055 45.8438 62.3125C46.4106 62.0779 47.154 61.8819 47.3438 61.2188C47.5729 60.4181 46.8124 59.957 46.2812 59.5312C45.9036 59.2285 45.5339 58.9277 45.1562 58.625C44.7786 58.3223 44.4089 58.0215 44.0312 57.7188C43.5555 57.3374 43.0141 56.7699 42.3438 56.9688ZM42.9375 58.75C42.9771 58.7823 43.0229 58.8115 43.0625 58.8438C43.4464 59.1568 43.8349 59.4994 44.2188 59.8125C44.5938 60.1184 44.9687 60.4128 45.3438 60.7188C45.3864 60.7535 45.4261 60.7777 45.4688 60.8125C44.9194 61.0457 44.3322 61.2682 43.8438 61.4688C43.5898 61.573 42.6901 61.9386 42.3125 62.0938C42.3208 62.0733 42.3328 62.0267 42.3438 62C42.5358 61.5332 42.5026 60.9965 42.5938 60.5C42.6849 60.0035 42.7837 59.4965 42.875 59C42.8905 58.9157 42.9247 58.8375 42.9375 58.75Z" fill="#ffffff" stroke="none"/>
</g>
</g>
</svg>
